<svg xmlns="http://www.w3.org/2000/svg" version="1.1" xmlns:xlink="http://www.w3.org/1999/xlink" xmlns:svgjs="http://svgjs.dev/svgjs" width="1000" height="212" viewBox="0 0 1000 212"><g transform="matrix(1,0,0,1,-0.6060606060606233,0.3890563671256899)"><svg viewBox="0 0 396 84" data-background-color="#ffffff" preserveAspectRatio="xMidYMid meet" height="212" width="1000" xmlns="http://www.w3.org/2000/svg" xmlns:xlink="http://www.w3.org/1999/xlink"><g id="tight-bounds" transform="matrix(1,0,0,1,0.2400000000000091,-0.15415440961584181)"><svg viewBox="0 0 395.52 84.30830881923168" height="84.30830881923168" width="395.52"><g><svg viewBox="0 0 577.1376204496636 123.02158357622058" height="84.30830881923168" width="395.52"><g transform="matrix(1,0,0,1,0,17.002259379926294)"><svg viewBox="0 0 395.52000000000004 89.01706481636799" height="89.01706481636799" width="395.52000000000004"><g><svg viewBox="0 0 395.52000000000004 89.01706481636799" height="89.01706481636799" width="395.52000000000004"><g><svg viewBox="0 0 395.52000000000004 64.88721772015127" height="64.88721772015127" width="395.52000000000004"><g transform="matrix(1,0,0,1,0,0)"><svg width="395.52000000000004" viewBox="0.5 -45.150001525878906 277.6199951171875 45.55000305175781" height="64.88721772015127" data-palette-color="#000000"><path d="M14.2 0L5.6 0 5.6-34.7 0.5-34.7 0.5-42.95 19.3-42.95 19.3-34.7 14.2-34.7 14.2 0ZM31.8 0.4Q26.15 0.4 23.7-2.7 21.25-5.8 21.25-11.95L21.25-11.95 21.25-26.65Q21.25-31.7 24.15-34.35 27.05-37 32.25-37L32.25-37Q42.8-37 42.8-26.65L42.8-26.65 42.8-24Q42.8-20 42.7-17.5L42.7-17.5 30-17.5 30-10.4Q30-8.5 30.4-7.43 30.8-6.35 32.1-6.35L32.1-6.35Q33.1-6.35 33.52-6.95 33.95-7.55 34.02-8.33 34.1-9.1 34.1-10.6L34.1-10.6 34.1-14.15 42.8-14.15 42.8-12.05Q42.8-5.65 40.32-2.63 37.85 0.4 31.8 0.4L31.8 0.4ZM29.95-21.85L34.1-21.85 34.1-26.55Q34.1-30.5 32.15-30.5L32.15-30.5Q29.95-30.5 29.95-26.55L29.95-26.55 29.95-21.85ZM56.95 0.4Q50.95 0.4 48.3-2.65 45.65-5.7 45.65-12L45.65-12 45.65-23.3Q45.65-28.05 46.67-31.03 47.7-34 50.12-35.5 52.55-37 56.85-37L56.85-37Q61.55-37 64.5-34.55 67.45-32.1 67.45-27.7L67.45-27.7 67.45-22.1 58.55-22.1 58.55-27.25Q58.55-28.7 58.15-29.48 57.75-30.25 56.6-30.25L56.6-30.25Q54.45-30.25 54.45-27.2L54.45-27.2 54.45-9.45Q54.45-8.2 54.97-7.33 55.5-6.45 56.55-6.45L56.55-6.45Q57.6-6.45 58.12-7.3 58.65-8.15 58.6-9.5L58.6-9.5 58.55-15.65 67.45-15.65 67.45-9.25Q67.45-4.75 64.52-2.18 61.6 0.4 56.95 0.4L56.95 0.4ZM70.49 0L70.49-43.2 79.49-43.2 79.49-33Q80.89-37 84.84-37L84.84-37Q88.54-37 90.44-34.65 92.34-32.3 92.34-28.2L92.34-28.2 92.34 0 83.59 0 83.59-27.65Q83.59-28.85 83.04-29.6 82.49-30.35 81.44-30.35L81.44-30.35Q80.54-30.35 80.02-29.58 79.49-28.8 79.49-27.7L79.49-27.7 79.49 0 70.49 0ZM108.19 0L99.59 0 99.59-34.7 94.49-34.7 94.49-42.95 113.29-42.95 113.29-34.7 108.19-34.7 108.19 0ZM125.79 0.4Q120.14 0.4 117.69-2.7 115.24-5.8 115.24-11.95L115.24-11.95 115.24-26.65Q115.24-31.7 118.14-34.35 121.04-37 126.24-37L126.24-37Q136.79-37 136.79-26.65L136.79-26.65 136.79-24Q136.79-20 136.69-17.5L136.69-17.5 123.99-17.5 123.99-10.4Q123.99-8.5 124.39-7.43 124.79-6.35 126.09-6.35L126.09-6.35Q127.09-6.35 127.51-6.95 127.94-7.55 128.01-8.33 128.09-9.1 128.09-10.6L128.09-10.6 128.09-14.15 136.79-14.15 136.79-12.05Q136.79-5.65 134.31-2.63 131.84 0.4 125.79 0.4L125.79 0.4ZM123.94-21.85L128.09-21.85 128.09-26.55Q128.09-30.5 126.14-30.5L126.14-30.5Q123.94-30.5 123.94-26.55L123.94-26.55 123.94-21.85ZM139.94 0L139.94-36.6 148.69-36.6 148.69-32.55Q149.34-34.7 150.96-35.88 152.59-37.05 154.99-37.05L154.99-37.05 154.99-29.75Q153.13-29.75 150.91-29.23 148.69-28.7 148.69-28L148.69-28 148.69 0 139.94 0ZM157.13 0L157.13-36.6 165.68-36.6 165.68-32.35Q166.28-34.7 167.73-35.85 169.18-37 171.83-37L171.83-37Q173.98-37 175.56-36.02 177.13-35.05 177.78-33.35L177.78-33.35Q178.88-35.25 180.23-36.13 181.58-37 183.98-37L183.98-37Q188.28-37 189.96-34.38 191.63-31.75 191.63-26.75L191.63-26.75 191.53 0 182.73 0 182.73-26.9Q182.73-30.45 180.93-30.45L180.93-30.45Q179.68-30.45 179.13-29.23 178.58-28 178.58-26.3L178.58-26.3 178.58 0 169.83 0 169.83-26.9Q169.83-28.45 169.51-29.4 169.18-30.35 168.13-30.35L168.13-30.35Q166.78-30.35 166.23-29.03 165.68-27.7 165.68-25.85L165.68-25.85 165.68 0 157.13 0ZM203.73-39.05L194.98-39.05 194.98-45.15 203.73-45.15 203.73-39.05ZM203.73 0L194.98 0 194.98-36.6 203.73-36.6 203.73 0ZM207.18 0L207.18-36.6 215.93-36.6 215.93-31.95Q216.48-34.2 217.83-35.6 219.18-37 221.43-37L221.43-37Q225.13-37 226.9-34.73 228.68-32.45 228.68-28.25L228.68-28.25 228.68 0 220.08 0 220.08-27.35Q220.08-28.55 219.6-29.4 219.13-30.25 218.13-30.25L218.13-30.25Q216.78-30.25 216.35-29.03 215.93-27.8 215.93-25.75L215.93-25.75 215.93 0 207.18 0ZM239.18 0.4Q235.07 0.4 233.55-2.05 232.03-4.5 232.03-9.35L232.03-9.35 232.03-36.6 240.82-36.6 240.82-11.1Q240.82-10.75 240.82-9.22 240.82-7.7 241.3-7.08 241.78-6.45 242.78-6.45L242.78-6.45Q244.13-6.45 244.47-7.58 244.82-8.7 244.82-10.8L244.82-10.8 244.82-11.1 244.88-36.6 253.57-36.6 253.57 0 244.82 0 244.82-3.9Q243.93-1.6 242.72-0.6 241.53 0.4 239.18 0.4L239.18 0.4ZM267.12 0.4Q256.27 0.4 256.27-10.6L256.27-10.6 256.32-13.5 265.07-13.5 265.12-9.2Q265.12-7.9 265.62-7.23 266.12-6.55 267.27-6.55L267.27-6.55Q269.02-6.55 269.02-9.4L269.02-9.4Q269.02-11.5 268.2-12.7 267.37-13.9 265.57-15.25L265.57-15.25 260.92-18.85Q258.52-20.7 257.47-22.68 256.42-24.65 256.42-28.25L256.42-28.25Q256.42-31.05 257.9-33.02 259.37-35 261.82-36 264.27-37 267.27-37L267.27-37Q277.92-37 277.92-26.4L277.92-26.4 277.92-25.7 268.87-25.7 268.87-27.1Q268.87-28.4 268.45-29.33 268.02-30.25 267.02-30.25L267.02-30.25Q266.12-30.25 265.65-29.73 265.17-29.2 265.17-28.3L265.17-28.3Q265.17-26.3 266.72-25.2L266.72-25.2 272.12-21.25Q275.02-19.1 276.57-16.57 278.12-14.05 278.12-10.2L278.12-10.2Q278.12-5.1 275.22-2.35 272.32 0.4 267.12 0.4L267.12 0.4Z" opacity="1" transform="matrix(1,0,0,1,0,0)" fill="#ffffff" class="undefined-text-0" data-fill-palette-color="primary" id="text-0"></path></svg></g></svg></g><g transform="matrix(1,0,0,1,163.31020800000002,80.2055325306537)"><svg viewBox="0 0 232.20979200000002 8.811532285714286" height="8.811532285714286" width="232.20979200000002"><g transform="matrix(1,0,0,1,0,0)"><svg width="232.20979200000002" viewBox="4.25 -33.25 895.9000244140625 34" height="8.811532285714286" data-palette-color="#000000"><path d="M17.25-6.25L17.25-6.25 17.25-9 20.75-9 20.75-6.25Q20.75-2.9 18.7-1.07 16.65 0.75 12.55 0.75 8.45 0.75 6.35-1.07 4.25-2.9 4.25-6.25L4.25-6.25 4.25-26.25Q4.25-29.6 6.3-31.43 8.35-33.25 12.45-33.25 16.55-33.25 18.65-31.43 20.75-29.6 20.75-26.25L20.75-26.25 20.75-21.5 17.25-21.5 17.25-26.25Q17.25-30.25 12.5-30.25 7.75-30.25 7.75-26.25L7.75-26.25 7.75-6.25Q7.75-2.25 12.5-2.25 17.25-2.25 17.25-6.25ZM45.75-26.25L45.75-26.25 45.75-6.25Q45.75-2.9 43.62-1.07 41.5 0.75 37.27 0.75 33.05 0.75 30.9-1.07 28.75-2.9 28.75-6.25L28.75-6.25 28.75-26.25Q28.75-29.6 30.87-31.43 33-33.25 37.22-33.25 41.45-33.25 43.6-31.43 45.75-29.6 45.75-26.25ZM42.25-6.25L42.25-6.25 42.25-26.25Q42.25-30.25 37.25-30.25 32.25-30.25 32.25-26.25L32.25-26.25 32.25-6.25Q32.25-2.25 37.25-2.25 42.25-2.25 42.25-6.25ZM58.5-25.4L58.5 0 55 0 55-32.5 56.5-32.5 57.75-29.3Q58.8-31.1 60.5-32.18 62.2-33.25 64.2-33.25L64.2-33.25Q69.25-33.25 70.65-29.6L70.65-29.6Q73.05-33.25 76.95-33.25L76.95-33.25Q84-33.25 84-26.25L84-26.25 84 0 80.5 0 80.5-26.25Q80.5-30.25 76.9-30.25L76.9-30.25Q74.8-30.25 73.02-28.55 71.25-26.85 71.25-25.25L71.25-25.25 71.25 0 67.75 0 67.75-26.25Q67.75-30.25 64.15-30.25L64.15-30.25Q62.05-30.25 60.27-28.63 58.5-27 58.5-25.4L58.5-25.4ZM96.49-10L96.49 0 92.99 0 92.99-32.5 100.54-32.5Q104.44-32.5 106.47-30.65 108.49-28.8 108.49-25.5L108.49-25.5 108.49-17Q108.49-13.65 106.49-11.83 104.49-10 100.54-10L100.54-10 96.49-10ZM104.99-17L104.99-17 104.99-25.5Q104.99-27.4 103.84-28.45 102.69-29.5 100.54-29.5L100.54-29.5 96.49-29.5 96.49-13 100.54-13Q104.99-13 104.99-17ZM129.14 0L116.49 0 116.49-32.5 119.99-32.5 119.99-3 129.14-3 129.14 0ZM147.39-6.25L147.39-6.25 147.39-9 150.89-9 150.89-6.25Q150.89-2.9 148.84-1.07 146.79 0.75 142.69 0.75 138.59 0.75 136.49-1.07 134.39-2.9 134.39-6.25L134.39-6.25 134.39-26.25Q134.39-29.6 136.44-31.43 138.49-33.25 142.59-33.25 146.69-33.25 148.79-31.43 150.89-29.6 150.89-26.25L150.89-26.25 150.89-15.25 137.89-15.25 137.89-6.25Q137.89-2.25 142.64-2.25 147.39-2.25 147.39-6.25ZM137.89-26.25L137.89-26.25 137.89-18.25 147.39-18.25 147.39-26.25Q147.39-30.25 142.64-30.25 137.89-30.25 137.89-26.25ZM159.39-5.75L159.39-32.5 170.39-32.5 170.39-29.5 162.89-29.5 162.89-5.55Q162.89-4.15 163.61-3.2 164.34-2.25 165.66-2.25 166.99-2.25 167.69-3.18 168.39-4.1 168.39-5.55L168.39-5.55 168.39-11.5 171.89-11.5 171.89-5.75Q171.89-2.6 170.21-0.93 168.54 0.75 165.69 0.75 162.84 0.75 161.11-0.93 159.39-2.6 159.39-5.75L159.39-5.75ZM191.13-6.25L191.13-6.25 191.13-9 194.63-9 194.63-6.25Q194.63-2.9 192.58-1.07 190.53 0.75 186.43 0.75 182.33 0.75 180.23-1.07 178.13-2.9 178.13-6.25L178.13-6.25 178.13-26.25Q178.13-29.6 180.18-31.43 182.23-33.25 186.33-33.25 190.43-33.25 192.53-31.43 194.63-29.6 194.63-26.25L194.63-26.25 194.63-15.25 181.63-15.25 181.63-6.25Q181.63-2.25 186.38-2.25 191.13-2.25 191.13-6.25ZM181.63-26.25L181.63-26.25 181.63-18.25 191.13-18.25 191.13-26.25Q191.13-30.25 186.38-30.25 181.63-30.25 181.63-26.25ZM227.63-6.25L227.63-6.25 227.63-9 231.13-9 231.13-6.25Q231.13-2.9 229.08-1.07 227.03 0.75 222.93 0.75 218.83 0.75 216.73-1.07 214.63-2.9 214.63-6.25L214.63-6.25 214.63-26.25Q214.63-29.6 216.68-31.43 218.73-33.25 222.83-33.25 226.93-33.25 229.03-31.43 231.13-29.6 231.13-26.25L231.13-26.25 231.13-21.5 227.63-21.5 227.63-26.25Q227.63-30.25 222.88-30.25 218.13-30.25 218.13-26.25L218.13-26.25 218.13-6.25Q218.13-2.25 222.88-2.25 227.63-2.25 227.63-6.25ZM256.13-26.25L256.13-26.25 256.13-6.25Q256.13-2.9 254-1.07 251.88 0.75 247.65 0.75 243.43 0.75 241.28-1.07 239.13-2.9 239.13-6.25L239.13-6.25 239.13-26.25Q239.13-29.6 241.25-31.43 243.38-33.25 247.6-33.25 251.83-33.25 253.98-31.43 256.13-29.6 256.13-26.25ZM252.63-6.25L252.63-6.25 252.63-26.25Q252.63-30.25 247.63-30.25 242.63-30.25 242.63-26.25L242.63-26.25 242.63-6.25Q242.63-2.25 247.63-2.25 252.63-2.25 252.63-6.25ZM268.87-25.4L268.87 0 265.37 0 265.37-32.5 266.87-32.5 268.12-29.3Q269.17-31.1 270.87-32.18 272.57-33.25 274.57-33.25L274.57-33.25Q279.62-33.25 281.02-29.6L281.02-29.6Q283.42-33.25 287.32-33.25L287.32-33.25Q294.37-33.25 294.37-26.25L294.37-26.25 294.37 0 290.87 0 290.87-26.25Q290.87-30.25 287.27-30.25L287.27-30.25Q285.17-30.25 283.4-28.55 281.62-26.85 281.62-25.25L281.62-25.25 281.62 0 278.12 0 278.12-26.25Q278.12-30.25 274.52-30.25L274.52-30.25Q272.42-30.25 270.65-28.63 268.87-27 268.87-25.4L268.87-25.4ZM306.87-10L306.87 0 303.37 0 303.37-32.5 310.92-32.5Q314.82-32.5 316.85-30.65 318.87-28.8 318.87-25.5L318.87-25.5 318.87-17Q318.87-13.65 316.87-11.83 314.87-10 310.92-10L310.92-10 306.87-10ZM315.37-17L315.37-17 315.37-25.5Q315.37-27.4 314.22-28.45 313.07-29.5 310.92-29.5L310.92-29.5 306.87-29.5 306.87-13 310.92-13Q315.37-13 315.37-17ZM326.37-6.25L326.37-6.25 326.37-32.5 329.87-32.5 329.87-6.25Q329.87-4.35 330.69-3.3 331.52-2.25 333.72-2.25 335.92-2.25 337.77-3.95 339.62-5.65 339.62-7.25L339.62-7.25 339.62-32.5 343.12-32.5 343.12 0 341.62 0 340.32-3.2Q339.22-1.4 337.49-0.33 335.77 0.75 333.72 0.75L333.72 0.75Q326.37 0.75 326.37-6.25ZM352.37-5.75L352.37-32.5 363.37-32.5 363.37-29.5 355.87-29.5 355.87-5.55Q355.87-4.15 356.59-3.2 357.31-2.25 358.64-2.25 359.97-2.25 360.67-3.18 361.37-4.1 361.37-5.55L361.37-5.55 361.37-11.5 364.87-11.5 364.87-5.75Q364.87-2.6 363.19-0.93 361.51 0.75 358.67 0.75 355.81 0.75 354.09-0.93 352.37-2.6 352.37-5.75L352.37-5.75ZM384.11-6.25L384.11-6.25 384.11-9 387.61-9 387.61-6.25Q387.61-2.9 385.56-1.07 383.51 0.75 379.41 0.75 375.31 0.75 373.21-1.07 371.11-2.9 371.11-6.25L371.11-6.25 371.11-26.25Q371.11-29.6 373.16-31.43 375.21-33.25 379.31-33.25 383.41-33.25 385.51-31.43 387.61-29.6 387.61-26.25L387.61-26.25 387.61-15.25 374.61-15.25 374.61-6.25Q374.61-2.25 379.36-2.25 384.11-2.25 384.11-6.25ZM374.61-26.25L374.61-26.25 374.61-18.25 384.11-18.25 384.11-26.25Q384.11-30.25 379.36-30.25 374.61-30.25 374.61-26.25ZM400.36-22.85L400.36 0 396.86 0 396.86-32.5 398.36-32.5 399.81-28.8Q401.41-33.25 404.91-33.25L404.91-33.25Q410.86-33.25 410.86-26.75L410.86-26.75 410.86-23.5 407.51-23.5 407.51-26.95Q407.51-30.25 404.76-30.25L404.76-30.25Q403.11-30.25 401.74-28.35 400.36-26.45 400.36-22.85L400.36-22.85ZM444.25-6.25L444.25-6.25Q444.25 0.75 435.81 0.75 427.36 0.75 427.36-6.25L427.36-6.25 427.36-10.5 430.86-10.5 430.86-6.05Q430.86-4.25 432.11-3.25 433.36-2.25 435.81-2.25 438.25-2.25 439.5-3.25 440.75-4.25 440.75-5.98 440.75-7.7 440.38-8.72 440-9.75 438.86-10.9L438.86-10.9 430.06-19.5Q428.5-21.05 427.93-22.53 427.36-24 427.36-26.25L427.36-26.25Q427.36-29.6 429.43-31.43 431.5-33.25 435.71-33.25L435.71-33.25Q443.75-33.25 443.75-26.25L443.75-26.25 443.75-22 440.25-22 440.25-26.45Q440.25-28.25 439.08-29.25 437.91-30.25 435.56-30.25 433.21-30.25 432.03-29.25 430.86-28.25 430.86-26.5 430.86-24.75 431.21-23.75 431.56-22.75 432.75-21.65L432.75-21.65 441.71-13.05Q443.16-11.45 443.71-9.98 444.25-8.5 444.25-6.25ZM469.5-26.25L469.5-26.25 469.5-6.25Q469.5-2.9 467.38-1.07 465.25 0.75 461.03 0.75 456.8 0.75 454.65-1.07 452.5-2.9 452.5-6.25L452.5-6.25 452.5-26.25Q452.5-29.6 454.63-31.43 456.75-33.25 460.98-33.25 465.2-33.25 467.35-31.43 469.5-29.6 469.5-26.25ZM466-6.25L466-6.25 466-26.25Q466-30.25 461-30.25 456-30.25 456-26.25L456-26.25 456-6.25Q456-2.25 461-2.25 466-2.25 466-6.25ZM491.4 0L478.75 0 478.75-32.5 482.25-32.5 482.25-3 491.4-3 491.4 0ZM496.9-6.25L496.9-6.25 496.9-32.5 500.4-32.5 500.4-6.25Q500.4-4.35 501.22-3.3 502.05-2.25 504.25-2.25 506.45-2.25 508.3-3.95 510.15-5.65 510.15-7.25L510.15-7.25 510.15-32.5 513.65-32.5 513.65 0 512.15 0 510.85-3.2Q509.75-1.4 508.02-0.33 506.3 0.75 504.25 0.75L504.25 0.75Q496.9 0.75 496.9-6.25ZM522.89-5.75L522.89-32.5 533.89-32.5 533.89-29.5 526.39-29.5 526.39-5.55Q526.39-4.15 527.12-3.2 527.85-2.25 529.17-2.25 530.5-2.25 531.19-3.18 531.89-4.1 531.89-5.55L531.89-5.55 531.89-11.5 535.39-11.5 535.39-5.75Q535.39-2.6 533.72-0.93 532.04 0.75 529.19 0.75 526.35 0.75 524.62-0.93 522.89-2.6 522.89-5.75L522.89-5.75ZM545.89-32.5L545.89 0 542.39 0 542.39-32.5 545.89-32.5ZM572.14-26.25L572.14-26.25 572.14-6.25Q572.14-2.9 570.01-1.07 567.89 0.75 563.66 0.75 559.44 0.75 557.29-1.07 555.14-2.9 555.14-6.25L555.14-6.25 555.14-26.25Q555.14-29.6 557.26-31.43 559.39-33.25 563.61-33.25 567.84-33.25 569.99-31.43 572.14-29.6 572.14-26.25ZM568.64-6.25L568.64-6.25 568.64-26.25Q568.64-30.25 563.64-30.25 558.64-30.25 558.64-26.25L558.64-26.25 558.64-6.25Q558.64-2.25 563.64-2.25 568.64-2.25 568.64-6.25ZM584.89-25.25L584.89 0 581.39 0 581.39-32.5 582.89-32.5 584.14-29.25Q586.54-33.25 590.79-33.25L590.79-33.25Q598.14-33.25 598.14-26.25L598.14-26.25 598.14 0 594.64 0 594.64-26.25Q594.64-28.15 593.81-29.2 592.99-30.25 590.79-30.25 588.59-30.25 586.74-28.55 584.89-26.85 584.89-25.25L584.89-25.25ZM623.53-6.25L623.53-6.25Q623.53 0.75 615.08 0.75 606.63 0.75 606.63-6.25L606.63-6.25 606.63-10.5 610.13-10.5 610.13-6.05Q610.13-4.25 611.38-3.25 612.63-2.25 615.08-2.25 617.53-2.25 618.78-3.25 620.03-4.25 620.03-5.98 620.03-7.7 619.66-8.72 619.28-9.75 618.13-10.9L618.13-10.9 609.33-19.5Q607.78-21.05 607.21-22.53 606.63-24 606.63-26.25L606.63-26.25Q606.63-29.6 608.71-31.43 610.78-33.25 614.98-33.25L614.98-33.25Q623.03-33.25 623.03-26.25L623.03-26.25 623.03-22 619.53-22 619.53-26.45Q619.53-28.25 618.36-29.25 617.18-30.25 614.83-30.25 612.48-30.25 611.31-29.25 610.13-28.25 610.13-26.5 610.13-24.75 610.48-23.75 610.83-22.75 612.03-21.65L612.03-21.65 620.98-13.05Q622.43-11.45 622.98-9.98 623.53-8.5 623.53-6.25ZM659.53-26.25L659.53 0 658.03 0 656.73-3.2Q655.68-1.4 653.98-0.33 652.28 0.75 650.23 0.75L650.23 0.75Q643.03 0.75 643.03-6.25L643.03-6.25 643.03-11.25Q643.03-18.25 650.23-18.25L650.23-18.25 656.03-18.25 656.03-26.45Q656.03-28.25 654.88-29.25 653.73-30.25 651.48-30.25L651.48-30.25Q647.03-30.25 647.03-26.45L647.03-26.45 647.03-23.5 643.53-23.5 643.53-26.25Q643.53-29.6 645.5-31.43 647.48-33.25 651.48-33.25 655.48-33.25 657.5-31.43 659.53-29.6 659.53-26.25L659.53-26.25ZM656.03-7.1L656.03-15.25 650.23-15.25Q648.13-15.25 647.33-14.2 646.53-13.15 646.53-11.25L646.53-11.25 646.53-6.25Q646.53-4.35 647.33-3.3 648.13-2.25 650.23-2.25 652.33-2.25 654.13-3.88 655.93-5.5 656.03-7.1L656.03-7.1ZM672.53-25.25L672.53 0 669.03 0 669.03-32.5 670.53-32.5 671.78-29.25Q674.18-33.25 678.43-33.25L678.43-33.25Q685.78-33.25 685.78-26.25L685.78-26.25 685.78 0 682.28 0 682.28-26.25Q682.28-28.15 681.45-29.2 680.63-30.25 678.43-30.25 676.23-30.25 674.38-28.55 672.53-26.85 672.53-25.25L672.53-25.25ZM703.32 0L703.32 0 695.27 0 695.27-32.5 703.32-32.5Q707.22-32.5 709.25-30.65 711.27-28.8 711.27-25.5L711.27-25.5 711.27-7Q711.27-3.65 709.27-1.83 707.27 0 703.32 0ZM707.77-7L707.77-7 707.77-25.5Q707.77-27.4 706.62-28.45 705.47-29.5 703.32-29.5L703.32-29.5 698.77-29.5 698.77-3 703.32-3Q707.77-3 707.77-7ZM747.92-6.25L747.92-6.25Q747.92 0.75 739.47 0.75 731.02 0.75 731.02-6.25L731.02-6.25 731.02-10.5 734.52-10.5 734.52-6.05Q734.52-4.25 735.77-3.25 737.02-2.25 739.47-2.25 741.92-2.25 743.17-3.25 744.42-4.25 744.42-5.98 744.42-7.7 744.04-8.72 743.67-9.75 742.52-10.9L742.52-10.9 733.72-19.5Q732.17-21.05 731.59-22.53 731.02-24 731.02-26.25L731.02-26.25Q731.02-29.6 733.09-31.43 735.17-33.25 739.37-33.25L739.37-33.25Q747.42-33.25 747.42-26.25L747.42-26.25 747.42-22 743.92-22 743.92-26.45Q743.92-28.25 742.74-29.25 741.57-30.25 739.22-30.25 736.87-30.25 735.69-29.25 734.52-28.25 734.52-26.5 734.52-24.75 734.87-23.75 735.22-22.75 736.42-21.65L736.42-21.65 745.37-13.05Q746.82-11.45 747.37-9.98 747.92-8.5 747.92-6.25ZM769.17-6.25L769.17-6.25 769.17-9 772.67-9 772.67-6.25Q772.67-2.9 770.62-1.07 768.57 0.75 764.47 0.75 760.37 0.75 758.27-1.07 756.17-2.9 756.17-6.25L756.17-6.25 756.17-26.25Q756.17-29.6 758.22-31.43 760.27-33.25 764.37-33.25 768.47-33.25 770.57-31.43 772.67-29.6 772.67-26.25L772.67-26.25 772.67-15.25 759.67-15.25 759.67-6.25Q759.67-2.25 764.42-2.25 769.17-2.25 769.17-6.25ZM759.67-26.25L759.67-26.25 759.67-18.25 769.17-18.25 769.17-26.25Q769.17-30.25 764.42-30.25 759.67-30.25 759.67-26.25ZM794.16-6.25L794.16-6.25 794.16-9 797.66-9 797.66-6.25Q797.66-2.9 795.61-1.07 793.56 0.75 789.46 0.75 785.36 0.75 783.26-1.07 781.16-2.9 781.16-6.25L781.16-6.25 781.16-26.25Q781.16-29.6 783.21-31.43 785.26-33.25 789.36-33.25 793.46-33.25 795.56-31.43 797.66-29.6 797.66-26.25L797.66-26.25 797.66-21.5 794.16-21.5 794.16-26.25Q794.16-30.25 789.41-30.25 784.66-30.25 784.66-26.25L784.66-26.25 784.66-6.25Q784.66-2.25 789.41-2.25 794.16-2.25 794.16-6.25ZM805.91-6.25L805.91-6.25 805.91-32.5 809.41-32.5 809.41-6.25Q809.41-4.35 810.24-3.3 811.06-2.25 813.26-2.25 815.46-2.25 817.31-3.95 819.16-5.65 819.16-7.25L819.16-7.25 819.16-32.5 822.66-32.5 822.66 0 821.16 0 819.86-3.2Q818.76-1.4 817.04-0.33 815.31 0.75 813.26 0.75L813.26 0.75Q805.91 0.75 805.91-6.25ZM836.16-22.85L836.16 0 832.66 0 832.66-32.5 834.16-32.5 835.61-28.8Q837.21-33.25 840.71-33.25L840.71-33.25Q846.66-33.25 846.66-26.75L846.66-26.75 846.66-23.5 843.31-23.5 843.31-26.95Q843.31-30.25 840.56-30.25L840.56-30.25Q838.91-30.25 837.53-28.35 836.16-26.45 836.16-22.85L836.16-22.85ZM856.16-32.5L856.16 0 852.66 0 852.66-32.5 856.16-32.5ZM865.4-5.75L865.4-32.5 876.4-32.5 876.4-29.5 868.9-29.5 868.9-5.55Q868.9-4.15 869.63-3.2 870.35-2.25 871.68-2.25 873-2.25 873.7-3.18 874.4-4.1 874.4-5.55L874.4-5.55 874.4-11.5 877.9-11.5 877.9-5.75Q877.9-2.6 876.23-0.93 874.55 0.75 871.7 0.75 868.85 0.75 867.13-0.93 865.4-2.6 865.4-5.75L865.4-5.75ZM893.45-9.2L893.45 0 889.95 0 889.95-9.2Q883.15-9.95 883.15-16.1L883.15-16.1 883.15-32.5 886.65-32.5 886.65-16.1Q886.65-12.1 891.65-12.1 896.65-12.1 896.65-16.1L896.65-16.1 896.65-32.5 900.15-32.5 900.15-16.1Q900.15-9.95 893.45-9.2L893.45-9.2Z" opacity="1" transform="matrix(1,0,0,1,0,0)" fill="#ffffff" class="undefined-text-1" data-fill-palette-color="secondary" id="text-1"></path></svg></g></svg></g></svg></g></svg></g><g transform="matrix(1,0,0,1,410.8383148105025,0)"><svg viewBox="0 0 166.29930563916113 123.02158357622058" height="123.02158357622058" width="166.29930563916113"><g><svg xmlns="http://www.w3.org/2000/svg" xmlns:xlink="http://www.w3.org/1999/xlink" version="1.1" x="0" y="0" viewBox="0 13.012999534606934 100 73.97600555419922" enable-background="new 0 0 100 100" xml:space="preserve" height="123.02158357622058" width="166.29930563916113" class="icon-icon-0" data-fill-palette-color="accent" id="icon-0"><g fill="#ffffff" data-fill-palette-color="accent"><g fill="#ffffff" data-fill-palette-color="accent"><rect x="0" y="84.313" width="71.072" height="2.676" fill="#ffffff" data-fill-palette-color="accent"></rect><polygon points="59.893,71.706 11.186,71.706 0,83.359 71.072,83.359   " fill="#ffffff" data-fill-palette-color="accent"></polygon></g><path d="M74.212 77.734c-3.25-3.688-1.835-5.599 1.388-5.994 3.223-0.393 6.09 2.221 8.168 4.441 2.078 2.224 3.419 5.918 0.245 6.21C78.896 82.858 75.538 79.24 74.212 77.734z" fill="#ffffff" data-fill-palette-color="accent"></path><path d="M74.123 15.43v51.292H100V15.43H74.123zM77.221 19.057H96.9v2.486h-19.68V19.057zM96.158 22.759v1.061h-3.221v-1.061H96.158zM77.563 63.504h-0.686v-5.321h0.686V63.504zM79.751 63.504h-0.688v-5.321h0.688V63.504zM81.935 63.504H81.25v-5.321h0.685V63.504zM84.124 63.504h-0.688v-5.321h0.688V63.504zM84.863 32.338h11.295v1.062H84.863V32.338zM86.31 63.506h-0.688v-5.32h0.688V63.506zM88.496 63.506h-0.686v-5.32h0.686V63.506zM90.683 63.506h-0.688v-5.32h0.688V63.506zM92.871 63.506h-0.69v-5.323h0.69V63.506zM93.014 43.235h3.574v3.573h-3.574V43.235zM95.056 63.506H94.37v-5.32h0.686V63.506zM97.244 63.506h-0.688v-5.32h0.688V63.506z" fill="#ffffff" data-fill-palette-color="accent"></path><path d="M65.073 53.479V13.013H6.001v40.466h25.801v7.001c-5.249 0.216-9.063 0.87-9.063 1.646v2.877c0 0.948 5.731 1.72 12.802 1.72 7.066 0 12.797-0.771 12.797-1.72v-2.877c0-0.775-3.82-1.43-9.063-1.646v-7.001H65.073zM59.283 51.906c-0.592 0-1.076-0.481-1.076-1.074 0-0.593 0.484-1.075 1.076-1.075 0.595 0 1.073 0.481 1.073 1.075C60.356 51.425 59.878 51.906 59.283 51.906zM10.707 16.812h49.654v31.345H10.707V16.812z" fill="#ffffff" data-fill-palette-color="accent"></path></g></svg></g></svg></g></svg></g><defs></defs></svg><rect width="395.52" height="84.30830881923168" fill="none" stroke="none" visibility="hidden"></rect></g></svg></g></svg>